<svg width="939" height="220" viewBox="0 0 939 220" fill="none" xmlns="http://www.w3.org/2000/svg">
<path d="M0 0H829V220H0V110V0Z" fill="#D9F6C6"/>
<path d="M939 110C939 170.751 889.751 220 829 220C768.249 220 719 170.751 719 110C719 49.2487 768.249 0 829 0C889.751 0 939 49.2487 939 110Z" fill="#D9F6C6"/>
<path fill-rule="evenodd" clip-rule="evenodd" d="M829 200C878.706 200 919 159.706 919 110C919 60.2944 878.706 20 829 20C779.294 20 739 60.2944 739 110C739 159.706 779.294 200 829 200ZM832.547 76.8046C830.856 75.1135 828.115 75.1135 826.424 76.8046C824.733 78.4956 824.733 81.2373 826.424 82.9283L849.65 106.155H798.867C796.475 106.155 794.536 108.094 794.536 110.485C794.536 112.877 796.475 114.815 798.867 114.815H849.65L826.424 138.042C824.733 139.733 824.733 142.475 826.424 144.166C828.115 145.857 830.856 145.857 832.547 144.166L863.166 113.547C864.857 111.856 864.857 109.114 863.166 107.423L832.547 76.8046Z" fill="#9FE870"/>
<path d="M49.716 144V78.2H55.45L85.53 129.524H82.522L112.32 78.2H118.054V144H111.38V88.634H112.978L85.53 135.634H82.24L54.604 88.634H56.39V144H49.716ZM155.191 144V119.56L156.789 123.884L128.871 78.2H136.297L160.831 118.338H156.883L181.417 78.2H188.373L160.455 123.884L162.053 119.56V144H155.191ZM223.763 144V78.2H248.391C253.968 78.2 258.762 79.1087 262.773 80.926C266.784 82.6807 269.854 85.25 271.985 88.634C274.178 91.9553 275.275 95.9973 275.275 100.76C275.275 105.397 274.178 109.408 271.985 112.792C269.854 116.113 266.784 118.683 262.773 120.5C258.762 122.317 253.968 123.226 248.391 123.226H227.617L230.719 119.936V144H223.763ZM230.719 120.5L227.617 117.116H248.203C254.783 117.116 259.765 115.706 263.149 112.886C266.596 110.003 268.319 105.961 268.319 100.76C268.319 95.496 266.596 91.4227 263.149 88.54C259.765 85.6573 254.783 84.216 248.203 84.216H227.617L230.719 80.926V120.5ZM290.316 144V78.2H314.944C320.521 78.2 325.315 79.1087 329.326 80.926C333.336 82.6807 336.407 85.25 338.538 88.634C340.731 91.9553 341.828 95.9973 341.828 100.76C341.828 105.397 340.731 109.408 338.538 112.792C336.407 116.113 333.336 118.683 329.326 120.5C325.315 122.255 320.521 123.132 314.944 123.132H294.17L297.272 119.936V144H290.316ZM335.248 144L318.328 120.124H325.848L342.862 144H335.248ZM297.272 120.5L294.17 117.21H314.756C321.336 117.21 326.318 115.769 329.702 112.886C333.148 110.003 334.872 105.961 334.872 100.76C334.872 95.496 333.148 91.4227 329.702 88.54C326.318 85.6573 321.336 84.216 314.756 84.216H294.17L297.272 80.926V120.5ZM387.009 144.564C382.059 144.564 377.453 143.749 373.191 142.12C368.993 140.428 365.327 138.078 362.193 135.07C359.123 131.999 356.71 128.459 354.955 124.448C353.263 120.375 352.417 115.925 352.417 111.1C352.417 106.275 353.263 101.857 354.955 97.846C356.71 93.7727 359.123 90.232 362.193 87.224C365.327 84.1533 368.993 81.8033 373.191 80.174C377.39 78.482 381.996 77.636 387.009 77.636C391.96 77.636 396.535 78.482 400.733 80.174C404.932 81.8033 408.567 84.122 411.637 87.13C414.771 90.138 417.183 93.6787 418.875 97.752C420.63 101.825 421.507 106.275 421.507 111.1C421.507 115.925 420.63 120.375 418.875 124.448C417.183 128.521 414.771 132.062 411.637 135.07C408.567 138.078 404.932 140.428 400.733 142.12C396.535 143.749 391.96 144.564 387.009 144.564ZM387.009 138.36C390.957 138.36 394.592 137.702 397.913 136.386C401.297 135.007 404.211 133.096 406.655 130.652C409.162 128.145 411.105 125.263 412.483 122.004C413.862 118.683 414.551 115.048 414.551 111.1C414.551 107.152 413.862 103.549 412.483 100.29C411.105 96.9687 409.162 94.086 406.655 91.642C404.211 89.1353 401.297 87.224 397.913 85.908C394.592 84.5293 390.957 83.84 387.009 83.84C383.061 83.84 379.395 84.5293 376.011 85.908C372.627 87.224 369.682 89.1353 367.175 91.642C364.731 94.086 362.789 96.9687 361.347 100.29C359.969 103.549 359.279 107.152 359.279 111.1C359.279 114.985 359.969 118.589 361.347 121.91C362.789 125.231 364.731 128.145 367.175 130.652C369.682 133.096 372.627 135.007 376.011 136.386C379.395 137.702 383.061 138.36 387.009 138.36ZM442.772 144.564C439.075 144.564 435.597 143.749 432.338 142.12C429.142 140.491 426.573 138.172 424.63 135.164L428.672 130.464C430.489 133.096 432.589 135.101 434.97 136.48C437.351 137.859 439.983 138.548 442.866 138.548C451.013 138.548 455.086 133.723 455.086 124.072V84.216H431.022V78.2H461.948V123.79C461.948 130.746 460.319 135.947 457.06 139.394C453.864 142.841 449.101 144.564 442.772 144.564ZM489.018 107.622H523.798V113.544H489.018V107.622ZM489.77 137.984H529.344V144H482.814V78.2H527.934V84.216H489.77V137.984ZM574.087 144.564C569.136 144.564 564.562 143.749 560.363 142.12C556.164 140.428 552.53 138.078 549.459 135.07C546.388 132.062 543.976 128.521 542.221 124.448C540.529 120.375 539.683 115.925 539.683 111.1C539.683 106.275 540.529 101.825 542.221 97.752C543.976 93.6787 546.388 90.138 549.459 87.13C552.592 84.122 556.258 81.8033 560.457 80.174C564.656 78.482 569.23 77.636 574.181 77.636C578.944 77.636 583.424 78.4507 587.623 80.08C591.822 81.6467 595.362 84.028 598.245 87.224L593.827 91.642C591.132 88.8847 588.156 86.9107 584.897 85.72C581.638 84.4667 578.129 83.84 574.369 83.84C570.421 83.84 566.755 84.5293 563.371 85.908C559.987 87.224 557.042 89.1353 554.535 91.642C552.028 94.086 550.054 96.9687 548.613 100.29C547.234 103.549 546.545 107.152 546.545 111.1C546.545 115.048 547.234 118.683 548.613 122.004C550.054 125.263 552.028 128.145 554.535 130.652C557.042 133.096 559.987 135.007 563.371 136.386C566.755 137.702 570.421 138.36 574.369 138.36C578.129 138.36 581.638 137.733 584.897 136.48C588.156 135.227 591.132 133.221 593.827 130.464L598.245 134.882C595.362 138.078 591.822 140.491 587.623 142.12C583.424 143.749 578.912 144.564 574.087 144.564ZM625.031 144V84.216H601.907V78.2H655.111V84.216H631.987V144H625.031ZM683.356 144.564C678.468 144.564 673.768 143.781 669.256 142.214C664.807 140.585 661.36 138.517 658.916 136.01L661.642 130.652C663.961 132.908 667.063 134.819 670.948 136.386C674.896 137.89 679.032 138.642 683.356 138.642C687.492 138.642 690.845 138.141 693.414 137.138C696.046 136.073 697.957 134.663 699.148 132.908C700.401 131.153 701.028 129.211 701.028 127.08C701.028 124.511 700.276 122.443 698.772 120.876C697.331 119.309 695.419 118.087 693.038 117.21C690.657 116.27 688.025 115.455 685.142 114.766C682.259 114.077 679.377 113.356 676.494 112.604C673.611 111.789 670.948 110.724 668.504 109.408C666.123 108.092 664.18 106.369 662.676 104.238C661.235 102.045 660.514 99.1933 660.514 95.684C660.514 92.4253 661.36 89.4487 663.052 86.754C664.807 83.9967 667.47 81.8033 671.042 80.174C674.614 78.482 679.189 77.636 684.766 77.636C688.463 77.636 692.129 78.1687 695.764 79.234C699.399 80.2367 702.532 81.6467 705.164 83.464L702.814 89.01C699.994 87.13 696.986 85.7513 693.79 84.874C690.657 83.9967 687.617 83.558 684.672 83.558C680.724 83.558 677.465 84.0907 674.896 85.156C672.327 86.2213 670.415 87.6627 669.162 89.48C667.971 91.2347 667.376 93.24 667.376 95.496C667.376 98.0653 668.097 100.133 669.538 101.7C671.042 103.267 672.985 104.489 675.366 105.366C677.81 106.243 680.473 107.027 683.356 107.716C686.239 108.405 689.09 109.157 691.91 109.972C694.793 110.787 697.425 111.852 699.806 113.168C702.25 114.421 704.193 116.113 705.634 118.244C707.138 120.375 707.89 123.163 707.89 126.61C707.89 129.806 707.013 132.783 705.258 135.54C703.503 138.235 700.809 140.428 697.174 142.12C693.602 143.749 688.996 144.564 683.356 144.564Z" fill="#9FE870"/>
</svg>
