<svg width="154" height="48" viewBox="0 0 154 48" fill="none" xmlns="http://www.w3.org/2000/svg">
<rect width="154" height="48" rx="24" fill="#9FE870"/>
<path d="M56.928 29.304C55.872 29.304 54.9547 29.1173 54.176 28.744C53.408 28.3707 52.768 27.8853 52.256 27.288C51.7547 26.68 51.376 26.0293 51.12 25.336C50.8747 24.632 50.752 23.9547 50.752 23.304V22.952C50.752 22.2373 50.88 21.528 51.136 20.824C51.392 20.1093 51.776 19.464 52.288 18.888C52.8107 18.312 53.456 17.8533 54.224 17.512C54.992 17.16 55.8933 16.984 56.928 16.984C57.952 16.984 58.848 17.16 59.616 17.512C60.384 17.8533 61.024 18.312 61.536 18.888C62.0587 19.464 62.448 20.1093 62.704 20.824C62.96 21.528 63.088 22.2373 63.088 22.952V23.304C63.088 23.9547 62.96 24.632 62.704 25.336C62.4587 26.0293 62.08 26.68 61.568 27.288C61.0667 27.8853 60.4267 28.3707 59.648 28.744C58.88 29.1173 57.9733 29.304 56.928 29.304ZM56.928 27.192C57.5253 27.192 58.0587 27.0853 58.528 26.872C59.008 26.6587 59.4133 26.3653 59.744 25.992C60.0853 25.608 60.3413 25.176 60.512 24.696C60.6933 24.2053 60.784 23.688 60.784 23.144C60.784 22.5573 60.6933 22.0187 60.512 21.528C60.3413 21.0373 60.0853 20.6107 59.744 20.248C59.4133 19.8853 59.008 19.6027 58.528 19.4C58.048 19.1973 57.5147 19.096 56.928 19.096C56.3307 19.096 55.792 19.1973 55.312 19.4C54.832 19.6027 54.4213 19.8853 54.08 20.248C53.7493 20.6107 53.4933 21.0373 53.312 21.528C53.1413 22.0187 53.056 22.5573 53.056 23.144C53.056 23.688 53.1413 24.2053 53.312 24.696C53.4933 25.176 53.7493 25.608 54.08 25.992C54.4213 26.3653 54.832 26.6587 55.312 26.872C55.792 27.0853 56.3307 27.192 56.928 27.192ZM68.5609 29V20.312H70.3209V24.04H70.1609C70.1609 23.1653 70.2729 22.4347 70.4969 21.848C70.7209 21.2507 71.0515 20.8027 71.4889 20.504C71.9369 20.1947 72.4915 20.04 73.1529 20.04H73.2489C73.9209 20.04 74.4755 20.1947 74.9129 20.504C75.3609 20.8027 75.6915 21.2507 75.9049 21.848C76.1289 22.4347 76.2409 23.1653 76.2409 24.04H75.6809C75.6809 23.1653 75.7929 22.4347 76.0169 21.848C76.2515 21.2507 76.5875 20.8027 77.0249 20.504C77.4729 20.1947 78.0275 20.04 78.6889 20.04H78.7849C79.4569 20.04 80.0169 20.1947 80.4649 20.504C80.9129 20.8027 81.2489 21.2507 81.4729 21.848C81.7075 22.4347 81.8249 23.1653 81.8249 24.04V29H79.6009V23.832C79.6009 23.288 79.4622 22.856 79.1849 22.536C78.9075 22.2053 78.5129 22.04 78.0009 22.04C77.4889 22.04 77.0782 22.2107 76.7689 22.552C76.4595 22.8827 76.3049 23.3307 76.3049 23.896V29H74.0809V23.832C74.0809 23.288 73.9422 22.856 73.6649 22.536C73.3875 22.2053 72.9929 22.04 72.4809 22.04C71.9689 22.04 71.5582 22.2107 71.2489 22.552C70.9395 22.8827 70.7849 23.3307 70.7849 23.896V29H68.5609ZM84.2015 29V20.312H85.9615V24.04H85.8015C85.8015 23.1547 85.9188 22.4187 86.1535 21.832C86.3882 21.2347 86.7348 20.7867 87.1935 20.488C87.6628 20.1893 88.2442 20.04 88.9375 20.04H89.0335C90.0682 20.04 90.8522 20.376 91.3855 21.048C91.9188 21.7093 92.1855 22.7013 92.1855 24.024V29H89.9615V23.832C89.9615 23.2987 89.8068 22.8667 89.4975 22.536C89.1988 22.2053 88.7828 22.04 88.2495 22.04C87.7055 22.04 87.2628 22.2107 86.9215 22.552C86.5908 22.8827 86.4255 23.3307 86.4255 23.896V29H84.2015ZM98.4645 29.304C97.7178 29.304 97.0618 29.176 96.4965 28.92C95.9418 28.664 95.4778 28.3227 95.1045 27.896C94.7418 27.4587 94.4645 26.9733 94.2725 26.44C94.0912 25.9067 94.0005 25.3627 94.0005 24.808V24.504C94.0005 23.928 94.0912 23.3733 94.2725 22.84C94.4645 22.296 94.7418 21.816 95.1045 21.4C95.4778 20.9733 95.9365 20.6373 96.4805 20.392C97.0245 20.136 97.6538 20.008 98.3685 20.008C99.3072 20.008 100.091 20.216 100.721 20.632C101.361 21.0373 101.841 21.576 102.161 22.248C102.481 22.9093 102.641 23.624 102.641 24.392V25.192H94.9445V23.832H101.249L100.561 24.504C100.561 23.9493 100.481 23.4747 100.321 23.08C100.161 22.6853 99.9152 22.3813 99.5845 22.168C99.2645 21.9547 98.8592 21.848 98.3685 21.848C97.8778 21.848 97.4618 21.96 97.1205 22.184C96.7792 22.408 96.5178 22.7333 96.3365 23.16C96.1658 23.576 96.0805 24.0773 96.0805 24.664C96.0805 25.208 96.1658 25.6933 96.3365 26.12C96.5072 26.536 96.7685 26.8667 97.1205 27.112C97.4725 27.3467 97.9205 27.464 98.4645 27.464C99.0085 27.464 99.4512 27.3573 99.7925 27.144C100.134 26.92 100.353 26.648 100.449 26.328H102.497C102.369 26.9253 102.123 27.448 101.76 27.896C101.398 28.344 100.934 28.6907 100.369 28.936C99.8138 29.1813 99.1792 29.304 98.4645 29.304ZM96.9925 19.208L95.2965 15.928H97.1685L98.2725 18.152H98.4485L99.3925 15.928H101.201L99.6645 19.208H96.9925Z" fill="#0E0F0C"/>
</svg>
